# xmcd
#
# Track frame offsets:
# 150
# 11792
# 27995
# 39900
# 57175
# 75195
# 94440
# 107182
# 121867
# 136500
#
# Disc length: 2037 seconds
#
#
# Revision: 0
# Processed by: cddbd v1.5.2PL0 Copyright (c) Steve Scherf et al.
# Submitted via: FreeRIP 2.944 
#
DISCID=7107f30a
DTITLE=New Orleans Dixielandband - Xmas in Diexieland
DYEAR=1900
DGENRE=Blues
TTITLE0=Alle Jahre wieder
TTITLE1=O Tannenbaum
TTITLE2=Aber heidschi bum beidschi
TTITLE3=Laßt uns froh und munter sein
TTITLE4=Leise rieselt der Schnee
TTITLE5=Jingle Bells
TTITLE6=Christmas Song
TTITLE7=Ihr Kinderlein kommet
TTITLE8=Kling Glöckchen klingeling
TTITLE9=Weißer Winterwald
EXTD=
EXTT0=
EXTT1=
EXTT2=
EXTT3=
EXTT4=
EXTT5=
EXTT6=
EXTT7=
EXTT8=
EXTT9=
PLAYORDER=
